# xmcd
#
# Track frame offsets:
#	150
#	15996
#	33371
#	48331
#	65372
#	78658
#	102519
#	118864
#	128976
#	146099
#	169194
#
# Disc length: 2587 seconds
# Revision: 1
# Processed by: cddbd v1.5.2PL0 Copyright (c) Steve Scherf et al.
# Submitted via: dBpowerAMP V12.0
#
DISCID=960a190b
DTITLE=Murder Murder - From The Stillhouse
DYEAR=2015
DGENRE=Canadian
TTITLE0=Sweet Revenge
TTITLE1=Where the Water Runs Black
TTITLE2=Evil Wind
TTITLE3=Duck Cove
TTITLE4=Movin On
TTITLE5=When the Lord Calls Your Name
TTITLE6=The Last Gunfighter Ballad (Guy Clark cover)
TTITLE7=Half Hitch Knot
TTITLE8=Alberta Oil
TTITLE9=Bridge County '41
TTITLE10=Jon and Mary
EXTD=
EXTT0=
EXTT1=
EXTT2=
EXTT3=
EXTT4=
EXTT5=
EXTT6=
EXTT7=
EXTT8=
EXTT9=
EXTT10=
PLAYORDER=
